<svg xmlns="http://www.w3.org/2000/svg" width="115.955" height="65.824" viewBox="0 0 115.955 65.824"><defs><style>.a{fill:#34394d;}.b{fill:#f07f26;}</style></defs><g transform="translate(-1228.868 -179.926)"><path class="a" d="M1415.983,205.878h9.125v43.189h-9.125Z" transform="translate(-120.424 -16.702)"/><path class="a" d="M1243.4,243.141a18.49,18.49,0,0,1-4.472-.537v27.9c0,6.883-.909,8.766-4.091,8.766a7.946,7.946,0,0,1-4.091-.974l-1.883,6.623a27.309,27.309,0,0,0,7.662,1.1c5.259,0,8.9-2.208,10.389-6.3,1.039-2.662,1.363-5.779,1.363-12.272V242.5A18.349,18.349,0,0,1,1243.4,243.141Z" transform="translate(0 -40.271)"/><path class="a" d="M1488.162,284.63" transform="translate(-166.877 -67.386)"/><path class="a" d="M1528.123,284.63" transform="translate(-192.596 -67.386)"/><path class="b" d="M1263.778,187.012a7.128,7.128,0,1,1-7.129-7.086A7.2,7.2,0,0,1,1263.778,187.012Z" transform="translate(-13.292)"/><path class="a" d="M1320.527,240.054a16.021,16.021,0,1,0,16.021,16.021A16.021,16.021,0,0,0,1320.527,240.054Zm0,23.15a7.128,7.128,0,1,1,7.129-7.17A7.2,7.2,0,0,1,1320.527,263.2Z" transform="translate(-48.679 -38.697)"/><path class="a" d="M1485.949,240.961v3.182h-.108c-1.726-2.75-5.123-4.206-8.79-4.206-8.575,0-14.992,7.118-14.992,15.963,0,9.06,6.148,16.017,14.992,16.017,3.937,0,7.5-1.618,8.79-4.261h.108v3.236h8.952v-29.93Zm-7.5,22.066a7.128,7.128,0,1,1,7.129-7.17A7.2,7.2,0,0,1,1478.45,263.027Z" transform="translate(-150.078 -38.621)"/></g></svg>